<svg width="1999" height="364" viewBox="0 0 1999 364" fill="none" xmlns="http://www.w3.org/2000/svg">
<ellipse cx="62.4453" cy="183.358" rx="103.463" ry="27.3067" transform="rotate(-90 62.4453 183.358)" fill="url(#paint0_linear_30_76)"/>
<ellipse cx="142.574" cy="277.028" rx="90.4253" ry="25.9721" fill="url(#paint1_linear_30_76)"/>
<path d="M4.717 140.987L4.71711 140.988C5.08303 143.903 6.99075 145.876 9.32203 146.98C11.4909 148.008 14.1546 148.379 16.8898 148.413C22.4149 148.484 29.7351 147.183 37.9718 144.836C38.0183 144.823 38.0613 144.81 38.0894 144.802L38.0955 144.8L38.1595 144.782L38.1789 144.777L38.1983 144.771C45.8443 142.579 54.4779 139.429 63.531 135.426C72.6619 131.391 81.1822 126.945 88.5468 122.49C88.5699 122.477 88.5901 122.464 88.6062 122.455L88.6578 122.423C88.6596 122.422 88.6611 122.421 88.6625 122.42L88.6715 122.415L88.6975 122.399C92.2352 120.255 95.5141 118.103 98.4708 115.985L99.1872 115.472L99.1919 115.464C103.984 111.982 107.985 108.534 110.806 105.319C112.287 103.632 113.535 101.906 114.384 100.18C115.222 98.4771 115.803 96.5058 115.546 94.4651L4.717 140.987ZM4.717 140.987C4.39054 138.382 5.4203 135.862 6.72396 133.759C8.07336 131.583 10.0323 129.346 12.3737 127.117C17.0694 122.647 23.7732 117.769 31.6988 112.974L31.9285 112.835L32.1745 112.726L32.3381 112.654L40.0598 109.24L37.8864 117.179C37.3313 119.207 36.974 121.21 36.8056 123.153L36.6026 125.495L34.6725 126.349M4.717 140.987L34.6725 126.349M34.6725 126.349C32.286 128.241 30.5433 129.922 29.4509 131.298C29.1098 131.727 28.8717 132.077 28.7052 132.352C29.7421 132.504 31.3746 132.512 33.6686 132.22C33.704 132.215 33.7446 132.209 33.7897 132.203C33.7947 132.203 33.7998 132.202 33.8049 132.202C33.819 132.2 33.8247 132.199 33.8356 132.197C33.8514 132.195 33.8783 132.191 33.9573 132.181L34.6725 126.349ZM85.1586 109.441C79.1801 114.096 70.1236 119.411 59.7429 124C49.4358 128.556 40.2314 131.332 33.9591 132.18L85.1586 109.441ZM85.1586 109.441C85.1593 109.44 85.16 109.44 85.1607 109.439C85.1833 109.422 85.2044 109.405 85.2236 109.391M85.1586 109.441L85.2236 109.391M85.2236 109.391L85.2299 109.386L85.2312 109.385L85.2494 109.37L85.2944 109.335C86.5458 108.356 87.6382 107.425 88.5618 106.553L88.565 106.55C90.0042 105.194 90.9546 104.064 91.4971 103.199C91.5181 103.166 91.5382 103.133 91.5573 103.102C90.5299 102.952 88.9117 102.941 86.6327 103.229L83.4746 103.626L82.3746 100.754C81.7949 99.2396 81.0591 97.8652 80.183 96.6519L76.9247 92.1394L82.449 90.5718C90.6476 88.2454 97.9332 86.9603 103.432 87.0402C106.154 87.0797 108.805 87.4548 110.965 88.4842C113.286 89.5909 115.181 91.5609 115.546 94.464L85.2236 109.391ZM33.7509 132.21L33.7654 132.208C33.7605 132.209 33.7557 132.209 33.7509 132.21ZM88.6711 122.415C88.6712 122.415 88.6712 122.415 88.6707 122.415C88.6708 122.415 88.6709 122.415 88.671 122.415L88.6711 122.415Z" fill="url(#paint2_linear_30_76)" stroke="black" stroke-width="8"/>
<path d="M305.84 289.8C287.547 289.8 273.173 285.787 262.72 277.76C252.453 269.733 247.32 258.627 247.32 244.44C247.32 230.44 252.733 219.333 263.56 211.12C274.573 202.907 289.507 198.8 308.36 198.8C319.373 198.8 329.08 200.293 337.48 203.28C346.067 206.267 352.693 210.28 357.36 215.32V197.4C357.36 186.76 353.813 178.64 346.72 173.04C339.813 167.44 329.64 164.64 316.2 164.64C298.84 164.64 283.813 168.747 271.12 176.96C267.947 178.827 265.333 179.76 263.28 179.76C261.413 179.76 259.547 179.013 257.68 177.52C255.627 175.84 254.6 173.693 254.6 171.08C254.6 168.28 255.813 165.947 258.24 164.08C264.96 158.853 273.453 154.747 283.72 151.76C294.173 148.587 304.813 147 315.64 147C335.427 147 350.733 151.48 361.56 160.44C372.573 169.4 378.08 182 378.08 198.24V278.88C378.08 286.16 374.72 289.8 368 289.8C365.013 289.8 362.587 288.867 360.72 287C358.853 284.947 357.92 282.333 357.92 279.16V269.08C346.347 282.893 328.987 289.8 305.84 289.8ZM308.36 272.72C322.92 272.72 334.773 270.013 343.92 264.6C353.067 259 357.64 251.813 357.64 243.04C357.64 234.267 353.347 227.547 344.76 222.88C336.36 218.027 324.413 215.6 308.92 215.6C295.853 215.6 285.773 218.12 278.68 223.16C271.587 228.013 268.04 235.107 268.04 244.44C268.04 253.587 271.493 260.587 278.4 265.44C285.307 270.293 295.293 272.72 308.36 272.72ZM426.288 289.8C423.115 289.8 420.595 288.867 418.728 287C417.048 284.947 416.208 282.147 416.208 278.6V158.2C416.208 154.653 417.048 151.947 418.728 150.08C420.408 148.027 422.928 147 426.288 147C429.461 147 431.888 148.027 433.568 150.08C435.435 151.947 436.368 154.653 436.368 158.2V174.72C443.275 165.573 451.581 158.667 461.288 154C471.181 149.333 482.008 147 493.768 147C511.501 147 525.128 151.947 534.648 161.84C544.355 171.733 549.208 185.92 549.208 204.4V278.6C549.208 282.147 548.275 284.947 546.408 287C544.541 288.867 542.021 289.8 538.848 289.8C535.488 289.8 532.968 288.867 531.288 287C529.608 284.947 528.768 282.147 528.768 278.6V204.4C528.768 177.893 516.261 164.64 491.248 164.64C474.821 164.64 461.568 169.493 451.488 179.2C441.595 188.907 436.648 201.787 436.648 217.84V278.6C436.648 281.96 435.715 284.667 433.848 286.72C432.168 288.773 429.648 289.8 426.288 289.8ZM655.14 289.8C640.207 289.8 627.047 286.907 615.66 281.12C604.273 275.147 595.5 266.747 589.34 255.92C583.18 245.093 580.1 232.493 580.1 218.12C580.1 203.933 583.18 191.52 589.34 180.88C595.5 170.053 604.273 161.747 615.66 155.96C627.047 149.987 640.207 147 655.14 147C669.14 147 681.273 148.96 691.54 152.88C701.807 156.8 709.927 162.587 715.9 170.24C717.393 172.293 718.14 174.253 718.14 176.12C718.14 178.92 716.74 181.44 713.94 183.68C712.633 184.8 710.953 185.36 708.9 185.36C705.727 185.36 702.74 183.96 699.94 181.16C690.047 170.147 675.113 164.64 655.14 164.64C637.78 164.64 624.34 169.307 614.82 178.64C605.487 187.787 600.82 200.947 600.82 218.12C600.82 235.107 605.58 248.36 615.1 257.88C624.62 267.4 637.967 272.16 655.14 272.16C664.66 272.16 673.433 270.76 681.46 267.96C689.487 264.973 696.113 260.773 701.34 255.36C704.513 252.187 707.5 250.6 710.3 250.6C711.98 250.6 713.847 251.347 715.9 252.84C718.513 255.08 719.82 257.507 719.82 260.12C719.82 262.547 718.793 264.6 716.74 266.28C707.593 274.493 698.073 280.467 688.18 284.2C678.287 287.933 667.273 289.8 655.14 289.8ZM820.309 289.8C796.043 289.8 777.283 283.547 764.029 271.04C750.776 258.533 744.149 240.8 744.149 217.84C744.149 195.813 750.869 178.547 764.309 166.04C777.749 153.347 796.136 147 819.469 147C833.843 147 846.629 149.333 857.829 154C869.029 158.48 877.709 164.92 883.869 173.32C890.216 181.533 893.389 190.96 893.389 201.6C893.389 209.44 891.149 215.507 886.669 219.8C882.376 224.093 876.403 226.24 868.749 226.24H765.149C765.149 240.613 770.003 251.907 779.709 260.12C789.416 268.147 802.949 272.16 820.309 272.16C830.949 272.16 840.096 271.04 847.749 268.8C855.403 266.373 862.589 262.547 869.309 257.32C872.856 254.333 875.749 252.84 877.989 252.84C879.669 252.84 881.256 253.587 882.749 255.08C885.363 257.32 886.669 259.653 886.669 262.08C886.669 263.947 885.549 266 883.309 268.24C875.656 275.52 866.696 280.933 856.429 284.48C846.163 288.027 834.123 289.8 820.309 289.8ZM862.589 209.72C865.949 209.72 868.469 209.067 870.149 207.76C871.829 206.267 872.669 203.653 872.669 199.92C872.669 193.2 870.429 187.133 865.949 181.72C861.469 176.307 855.123 172.107 846.909 169.12C838.883 166.133 829.736 164.64 819.469 164.64C802.856 164.64 789.696 168.747 779.989 176.96C770.469 184.987 765.709 195.907 765.709 209.72H862.589ZM935.429 289.8C932.255 289.8 929.735 288.867 927.869 287C926.189 284.947 925.349 282.147 925.349 278.6V158.2C925.349 154.653 926.189 151.947 927.869 150.08C929.549 148.027 932.069 147 935.429 147C938.602 147 941.029 148.027 942.709 150.08C944.575 151.947 945.509 154.653 945.509 158.2V175C958.202 158.2 975.749 149.8 998.149 149.8H1005.15C1008.7 149.8 1011.5 150.64 1013.55 152.32C1015.6 153.813 1016.63 155.96 1016.63 158.76C1016.63 161.56 1015.6 163.707 1013.55 165.2C1011.5 166.693 1008.7 167.44 1005.15 167.44H997.309C981.442 167.44 968.842 172.013 959.509 181.16C950.362 190.12 945.789 202.347 945.789 217.84V278.6C945.789 281.96 944.855 284.667 942.989 286.72C941.309 288.773 938.789 289.8 935.429 289.8ZM1134.01 289.8C1130.84 289.8 1128.32 288.867 1126.45 287C1124.58 284.947 1123.65 282.147 1123.65 278.6V124.6C1123.65 114.147 1126.73 105.933 1132.89 99.96C1139.24 93.9867 1148.01 91 1159.21 91H1206.81C1260.01 91 1286.61 113.307 1286.61 157.92C1286.61 178.453 1279.8 194.32 1266.17 205.52C1252.73 216.533 1233.32 222.04 1207.93 222.04H1144.65V278.6C1144.65 282.147 1143.72 284.947 1141.85 287C1139.98 288.867 1137.37 289.8 1134.01 289.8ZM1207.93 204.4C1226.04 204.4 1240.04 200.853 1249.93 193.76C1260.01 186.667 1265.05 174.72 1265.05 157.92C1265.05 140.373 1260.2 127.773 1250.49 120.12C1240.78 112.28 1226.69 108.36 1208.21 108.36H1159.49C1155.01 108.36 1151.37 109.853 1148.57 112.84C1145.96 115.827 1144.65 119.747 1144.65 124.6V204.4H1207.93ZM1337.51 289.8C1334.34 289.8 1331.82 288.867 1329.95 287C1328.27 284.947 1327.43 282.147 1327.43 278.6V85.68C1327.43 82.1333 1328.27 79.4267 1329.95 77.56C1331.82 75.5067 1334.34 74.48 1337.51 74.48C1340.69 74.48 1343.21 75.5067 1345.07 77.56C1346.94 79.4267 1347.87 82.1333 1347.87 85.68V278.6C1347.87 281.96 1346.94 284.667 1345.07 286.72C1343.39 288.773 1340.87 289.8 1337.51 289.8ZM1444.16 289.8C1425.87 289.8 1411.49 285.787 1401.04 277.76C1390.77 269.733 1385.64 258.627 1385.64 244.44C1385.64 230.44 1391.05 219.333 1401.88 211.12C1412.89 202.907 1427.83 198.8 1446.68 198.8C1457.69 198.8 1467.4 200.293 1475.8 203.28C1484.39 206.267 1491.01 210.28 1495.68 215.32V197.4C1495.68 186.76 1492.13 178.64 1485.04 173.04C1478.13 167.44 1467.96 164.64 1454.52 164.64C1437.16 164.64 1422.13 168.747 1409.44 176.96C1406.27 178.827 1403.65 179.76 1401.6 179.76C1399.73 179.76 1397.87 179.013 1396 177.52C1393.95 175.84 1392.92 173.693 1392.92 171.08C1392.92 168.28 1394.13 165.947 1396.56 164.08C1403.28 158.853 1411.77 154.747 1422.04 151.76C1432.49 148.587 1443.13 147 1453.96 147C1473.75 147 1489.05 151.48 1499.88 160.44C1510.89 169.4 1516.4 182 1516.4 198.24V278.88C1516.4 286.16 1513.04 289.8 1506.32 289.8C1503.33 289.8 1500.91 288.867 1499.04 287C1497.17 284.947 1496.24 282.333 1496.24 279.16V269.08C1484.67 282.893 1467.31 289.8 1444.16 289.8ZM1446.68 272.72C1461.24 272.72 1473.09 270.013 1482.24 264.6C1491.39 259 1495.96 251.813 1495.96 243.04C1495.96 234.267 1491.67 227.547 1483.08 222.88C1474.68 218.027 1462.73 215.6 1447.24 215.6C1434.17 215.6 1424.09 218.12 1417 223.16C1409.91 228.013 1406.36 235.107 1406.36 244.44C1406.36 253.587 1409.81 260.587 1416.72 265.44C1423.63 270.293 1433.61 272.72 1446.68 272.72ZM1564.61 289.8C1561.44 289.8 1558.92 288.867 1557.05 287C1555.37 284.947 1554.53 282.147 1554.53 278.6V158.2C1554.53 154.653 1555.37 151.947 1557.05 150.08C1558.73 148.027 1561.25 147 1564.61 147C1567.78 147 1570.21 148.027 1571.89 150.08C1573.76 151.947 1574.69 154.653 1574.69 158.2V174.72C1581.6 165.573 1589.9 158.667 1599.61 154C1609.5 149.333 1620.33 147 1632.09 147C1649.82 147 1663.45 151.947 1672.97 161.84C1682.68 171.733 1687.53 185.92 1687.53 204.4V278.6C1687.53 282.147 1686.6 284.947 1684.73 287C1682.86 288.867 1680.34 289.8 1677.17 289.8C1673.81 289.8 1671.29 288.867 1669.61 287C1667.93 284.947 1667.09 282.147 1667.09 278.6V204.4C1667.09 177.893 1654.58 164.64 1629.57 164.64C1613.14 164.64 1599.89 169.493 1589.81 179.2C1579.92 188.907 1574.97 201.787 1574.97 217.84V278.6C1574.97 281.96 1574.04 284.667 1572.17 286.72C1570.49 288.773 1567.97 289.8 1564.61 289.8ZM1794.02 289.8C1769.75 289.8 1750.99 283.547 1737.74 271.04C1724.49 258.533 1717.86 240.8 1717.86 217.84C1717.86 195.813 1724.58 178.547 1738.02 166.04C1751.46 153.347 1769.85 147 1793.18 147C1807.55 147 1820.34 149.333 1831.54 154C1842.74 158.48 1851.42 164.92 1857.58 173.32C1863.93 181.533 1867.1 190.96 1867.1 201.6C1867.1 209.44 1864.86 215.507 1860.38 219.8C1856.09 224.093 1850.11 226.24 1842.46 226.24H1738.86C1738.86 240.613 1743.71 251.907 1753.42 260.12C1763.13 268.147 1776.66 272.16 1794.02 272.16C1804.66 272.16 1813.81 271.04 1821.46 268.8C1829.11 266.373 1836.3 262.547 1843.02 257.32C1846.57 254.333 1849.46 252.84 1851.7 252.84C1853.38 252.84 1854.97 253.587 1856.46 255.08C1859.07 257.32 1860.38 259.653 1860.38 262.08C1860.38 263.947 1859.26 266 1857.02 268.24C1849.37 275.52 1840.41 280.933 1830.14 284.48C1819.87 288.027 1807.83 289.8 1794.02 289.8ZM1836.3 209.72C1839.66 209.72 1842.18 209.067 1843.86 207.76C1845.54 206.267 1846.38 203.653 1846.38 199.92C1846.38 193.2 1844.14 187.133 1839.66 181.72C1835.18 176.307 1828.83 172.107 1820.62 169.12C1812.59 166.133 1803.45 164.64 1793.18 164.64C1776.57 164.64 1763.41 168.747 1753.7 176.96C1744.18 184.987 1739.42 195.907 1739.42 209.72H1836.3ZM1985.19 259.28C1987.24 260.96 1988.27 262.92 1988.27 265.16C1988.27 267.027 1987.43 269.267 1985.75 271.88C1981.83 277.293 1976.42 281.68 1969.51 285.04C1962.6 288.213 1955.51 289.8 1948.23 289.8C1935.91 289.8 1926.2 286.16 1919.11 278.88C1912.02 271.6 1908.47 261.613 1908.47 248.92V166.88H1893.35C1885.88 166.88 1882.15 163.987 1882.15 158.2C1882.15 155.587 1883.08 153.533 1884.95 152.04C1887 150.547 1889.8 149.8 1893.35 149.8H1908.47V101.92C1908.47 98.3733 1909.31 95.6667 1910.99 93.8C1912.86 91.7467 1915.47 90.72 1918.83 90.72C1922 90.72 1924.43 91.7467 1926.11 93.8C1927.98 95.6667 1928.91 98.3733 1928.91 101.92V149.8H1966.99C1970.35 149.8 1972.96 150.547 1974.83 152.04C1976.88 153.347 1977.91 155.4 1977.91 158.2C1977.91 163.987 1974.27 166.88 1966.99 166.88H1928.91V250.6C1928.91 264.973 1935.63 272.16 1949.07 272.16C1953.36 272.16 1957.28 271.32 1960.83 269.64C1964.38 267.96 1967.92 265.253 1971.47 261.52C1974.27 258.533 1976.98 257.04 1979.59 257.04C1981.27 257.04 1983.14 257.787 1985.19 259.28Z" fill="white"/>
<defs>
<linearGradient id="paint0_linear_30_76" x1="165.908" y1="183.358" x2="-41.0172" y2="183.358" gradientUnits="userSpaceOnUse">
<stop stop-color="#2D2BA8"/>
<stop offset="1" stop-color="#121142"/>
</linearGradient>
<linearGradient id="paint1_linear_30_76" x1="232.999" y1="277.028" x2="52.1484" y2="277.028" gradientUnits="userSpaceOnUse">
<stop stop-color="#2D2BA8"/>
<stop offset="1" stop-color="#121142"/>
</linearGradient>
<linearGradient id="paint2_linear_30_76" x1="83.2006" y1="78.1199" x2="39.9089" y2="158.86" gradientUnits="userSpaceOnUse">
<stop stop-color="#3255B5"/>
<stop offset="1" stop-color="#351B6B"/>
</linearGradient>
</defs>
</svg>
