<svg width="567" height="670" viewBox="0 0 567 670" fill="none" xmlns="http://www.w3.org/2000/svg">
<ellipse cx="138.943" cy="337.286" rx="287.55" ry="68.4294" transform="rotate(-90 138.943 337.286)" fill="url(#paint0_linear_31_30)"/>
<ellipse cx="339.745" cy="597.62" rx="226.602" ry="72.1833" fill="url(#paint1_linear_31_30)"/>
<path d="M4.3794 218.008C2.70557 203.192 28.1756 177.092 67.1625 150.931L67.5725 150.73C66.0312 156.974 65.0297 163.18 64.5559 169.244L64.0661 169.484C50.398 181.299 42.4803 191.931 43.2791 198.937C44.0674 205.954 53.4377 208.104 68.2001 205.984C68.218 205.982 68.244 205.973 68.2618 205.971C68.4305 205.948 68.6016 205.92 68.776 205.894C85.836 203.337 109.91 195.176 136.248 182.264C162.847 169.223 186.346 153.986 202.167 140.319C202.183 140.304 202.208 140.288 202.225 140.273L202.227 140.268C202.32 140.187 202.411 140.112 202.501 140.029C205.834 137.137 208.824 134.318 211.416 131.603C219.334 123.331 223.614 116.058 223.017 110.817C222.233 103.857 213.002 101.691 198.431 103.728C196.706 98.7287 194.479 94.0871 191.762 89.9134C232.044 77.2366 260.244 76.9852 261.915 91.7502C263.216 103.225 248.229 121.466 223.284 141.267L223.282 141.272C216.115 146.964 208.124 152.783 199.458 158.608C199.349 158.679 199.241 158.757 199.132 158.828C181.071 170.947 160.104 183.087 137.59 194.121C115.282 205.062 94.1014 213.621 75.4663 219.548C75.2949 219.6 75.1211 219.658 74.9497 219.71C34.4483 232.516 6.05644 232.826 4.3794 218.008Z" fill="url(#paint2_linear_31_30)"/>
<defs>
<linearGradient id="paint0_linear_31_30" x1="426.493" y1="337.286" x2="-148.607" y2="337.286" gradientUnits="userSpaceOnUse">
<stop stop-color="#2D2BA8"/>
<stop offset="1" stop-color="#121142"/>
</linearGradient>
<linearGradient id="paint1_linear_31_30" x1="566.347" y1="597.62" x2="113.143" y2="597.62" gradientUnits="userSpaceOnUse">
<stop stop-color="#2D2BA8"/>
<stop offset="1" stop-color="#121142"/>
</linearGradient>
<linearGradient id="paint2_linear_31_30" x1="190.957" y1="44.8015" x2="64.0348" y2="258.236" gradientUnits="userSpaceOnUse">
<stop stop-color="#3255B5"/>
<stop offset="1" stop-color="#351B6B"/>
</linearGradient>
</defs>
</svg>
